<svg width="399" height="180" viewBox="0 0 399 180" fill="none" xmlns="http://www.w3.org/2000/svg">
<g filter="url(#filter0_d_34_26)">
<path d="M345.035 164L350.831 129.091H374.353L373.331 135.176H357.189L355.825 143.494H370.757L369.734 149.58H354.802L353.439 157.915H369.649L368.626 164H345.035Z" fill="#686060"/>
</g>
<g filter="url(#filter1_d_34_26)">
<path d="M300.765 164L306.56 129.091H330.083L329.06 135.176H312.918L311.554 143.494H326.486L325.464 149.58H310.532L309.168 157.915H325.378L324.356 164H300.765Z" fill="#686060"/>
</g>
<g filter="url(#filter2_d_34_26)">
<path d="M254.854 129.091H263.121L268.592 144.125H268.967L279.382 129.091H287.649L271.183 151.659L269.121 164H261.791L263.854 151.659L254.854 129.091Z" fill="#686060"/>
</g>
<g filter="url(#filter3_d_34_26)">
<path d="M235.695 147.023C235.059 150.75 233.826 153.915 231.996 156.517C230.178 159.119 227.956 161.097 225.331 162.449C222.718 163.801 219.899 164.477 216.877 164.477C213.706 164.477 210.973 163.756 208.678 162.313C206.394 160.869 204.74 158.784 203.718 156.057C202.695 153.318 202.502 150.017 203.138 146.153C203.752 142.415 204.973 139.244 206.803 136.642C208.632 134.028 210.865 132.04 213.502 130.676C216.138 129.301 218.973 128.614 222.007 128.614C225.155 128.614 227.871 129.341 230.155 130.795C232.451 132.25 234.104 134.352 235.115 137.102C236.138 139.841 236.331 143.148 235.695 147.023ZM228.348 146.153C228.746 143.756 228.729 141.744 228.297 140.119C227.877 138.483 227.104 137.244 225.979 136.403C224.854 135.563 223.434 135.142 221.718 135.142C219.854 135.142 218.144 135.608 216.587 136.54C215.042 137.472 213.735 138.824 212.667 140.597C211.61 142.358 210.877 144.5 210.468 147.023C210.059 149.432 210.07 151.443 210.502 153.057C210.945 154.67 211.735 155.892 212.871 156.722C214.019 157.54 215.445 157.949 217.149 157.949C219.002 157.949 220.695 157.494 222.229 156.585C223.774 155.665 225.076 154.33 226.132 152.58C227.189 150.818 227.928 148.676 228.348 146.153Z" fill="#686060"/>
</g>
<g filter="url(#filter4_d_34_26)">
<path d="M160.031 164L165.826 129.091H173.207L168.434 157.915H183.4L182.377 164H160.031Z" fill="#686060"/>
</g>
<g filter="url(#filter5_d_34_26)">
<path d="M114.073 164L119.868 129.091H133.641C136.277 129.091 138.442 129.597 140.135 130.608C141.84 131.608 143.033 133 143.715 134.784C144.408 136.557 144.567 138.602 144.192 140.92C143.806 143.25 142.965 145.301 141.669 147.074C140.385 148.835 138.715 150.21 136.658 151.199C134.601 152.188 132.226 152.682 129.533 152.682H120.755L121.726 146.767H129.311C130.743 146.767 131.965 146.523 132.976 146.034C133.999 145.534 134.811 144.847 135.414 143.972C136.016 143.085 136.408 142.068 136.59 140.92C136.783 139.75 136.72 138.733 136.402 137.869C136.084 137.006 135.499 136.335 134.647 135.858C133.806 135.369 132.675 135.125 131.255 135.125H126.277L121.453 164H114.073Z" fill="#686060"/>
</g>
<g filter="url(#filter6_d_34_26)">
<path d="M61.0665 129.091H70.1687L75.913 152.545H76.3221L89.8051 129.091H98.9074L93.1119 164H85.9528L89.7369 141.278H89.4301L76.6801 163.83H71.788L66.538 141.193H66.2483L62.4301 164H55.271L61.0665 129.091Z" fill="#686060"/>
</g>
<g filter="url(#filter7_d_34_26)">
<path d="M11 164L16.7955 129.091H40.3182L39.2955 135.176H23.1534L21.7898 143.494H36.7216L35.6989 149.58H20.767L19.4034 157.915H35.6136L34.5909 164H11Z" fill="#686060"/>
</g>
<g filter="url(#filter8_d_34_26)">
<path d="M315.998 104.884H290.915L339.526 8.32025H370.598L387.148 104.884H362.064L351.455 32.6498H350.701L315.998 104.884ZM319.016 66.8808H371.447L368.429 84.6093H315.998L319.016 66.8808Z" fill="#9E0A15"/>
<path d="M245.025 8.32025L254.879 79.0456H255.681L289.016 8.32025H315.137L266.526 104.884H235.454L218.904 8.32025H245.025Z" fill="#9E0A15"/>
<path d="M206.928 58.1108C205.167 68.5153 201.71 77.301 196.555 84.4678C191.431 91.6032 185.191 97.0097 177.836 100.687C170.512 104.365 162.638 106.204 154.214 106.204C145.318 106.204 137.617 104.224 131.11 100.263C124.603 96.3025 119.873 90.5344 116.918 82.959C113.995 75.3835 113.429 66.1892 115.22 55.3761C116.918 44.9716 120.328 36.1703 125.452 28.972C130.607 21.7737 136.878 16.32 144.265 12.6109C151.683 8.87029 159.636 7 168.123 7C176.956 7 184.61 8.99603 191.085 12.9881C197.592 16.9801 202.307 22.7796 205.23 30.3865C208.154 37.9934 208.719 47.2348 206.928 58.1108ZM183.588 55.3761C184.563 49.3095 184.563 44.2015 183.588 40.0523C182.645 35.9031 180.791 32.7754 178.025 30.6694C175.258 28.5319 171.659 27.4632 167.227 27.4632C162.324 27.4632 157.891 28.6734 153.931 31.0938C150.002 33.4827 146.717 36.9718 144.076 41.5611C141.436 46.1189 139.597 51.6355 138.56 58.1108C137.491 64.2403 137.46 69.3483 138.466 73.4346C139.503 77.521 141.436 80.6015 144.265 82.6761C147.094 84.7193 150.693 85.7408 155.062 85.7408C159.935 85.7408 164.32 84.5621 168.217 82.2046C172.115 79.8471 175.368 76.4051 177.977 71.8787C180.618 67.3523 182.488 61.8514 183.588 55.3761Z" fill="#9E0A15"/>
<path d="M109.362 8.32025L93.3307 104.884H73.5277L44.436 49.1523H43.7759L34.4873 104.884H11.1479L27.179 8.32025H47.265L76.1209 63.9575H76.9225L86.0696 8.32025H109.362Z" fill="#9E0A15"/>
</g>
<defs>
<filter id="filter0_d_34_26" x="334.035" y="122.091" width="51.3184" height="56.9091" filterUnits="userSpaceOnUse" color-interpolation-filters="sRGB">
<feFlood flood-opacity="0" result="BackgroundImageFix"/>
<feColorMatrix in="SourceAlpha" type="matrix" values="0 0 0 0 0 0 0 0 0 0 0 0 0 0 0 0 0 0 127 0" result="hardAlpha"/>
<feOffset dy="4"/>
<feGaussianBlur stdDeviation="5.5"/>
<feComposite in2="hardAlpha" operator="out"/>
<feColorMatrix type="matrix" values="0 0 0 0 0 0 0 0 0 0 0 0 0 0 0 0 0 0 0.15 0"/>
<feBlend mode="normal" in2="BackgroundImageFix" result="effect1_dropShadow_34_26"/>
<feBlend mode="normal" in="SourceGraphic" in2="effect1_dropShadow_34_26" result="shape"/>
</filter>
<filter id="filter1_d_34_26" x="289.765" y="122.091" width="51.3184" height="56.9091" filterUnits="userSpaceOnUse" color-interpolation-filters="sRGB">
<feFlood flood-opacity="0" result="BackgroundImageFix"/>
<feColorMatrix in="SourceAlpha" type="matrix" values="0 0 0 0 0 0 0 0 0 0 0 0 0 0 0 0 0 0 127 0" result="hardAlpha"/>
<feOffset dy="4"/>
<feGaussianBlur stdDeviation="5.5"/>
<feComposite in2="hardAlpha" operator="out"/>
<feColorMatrix type="matrix" values="0 0 0 0 0 0 0 0 0 0 0 0 0 0 0 0 0 0 0.15 0"/>
<feBlend mode="normal" in2="BackgroundImageFix" result="effect1_dropShadow_34_26"/>
<feBlend mode="normal" in="SourceGraphic" in2="effect1_dropShadow_34_26" result="shape"/>
</filter>
<filter id="filter2_d_34_26" x="243.854" y="122.091" width="54.7954" height="56.9091" filterUnits="userSpaceOnUse" color-interpolation-filters="sRGB">
<feFlood flood-opacity="0" result="BackgroundImageFix"/>
<feColorMatrix in="SourceAlpha" type="matrix" values="0 0 0 0 0 0 0 0 0 0 0 0 0 0 0 0 0 0 127 0" result="hardAlpha"/>
<feOffset dy="4"/>
<feGaussianBlur stdDeviation="5.5"/>
<feComposite in2="hardAlpha" operator="out"/>
<feColorMatrix type="matrix" values="0 0 0 0 0 0 0 0 0 0 0 0 0 0 0 0 0 0 0.15 0"/>
<feBlend mode="normal" in2="BackgroundImageFix" result="effect1_dropShadow_34_26"/>
<feBlend mode="normal" in="SourceGraphic" in2="effect1_dropShadow_34_26" result="shape"/>
</filter>
<filter id="filter3_d_34_26" x="191.772" y="121.614" width="55.2891" height="57.8636" filterUnits="userSpaceOnUse" color-interpolation-filters="sRGB">
<feFlood flood-opacity="0" result="BackgroundImageFix"/>
<feColorMatrix in="SourceAlpha" type="matrix" values="0 0 0 0 0 0 0 0 0 0 0 0 0 0 0 0 0 0 127 0" result="hardAlpha"/>
<feOffset dy="4"/>
<feGaussianBlur stdDeviation="5.5"/>
<feComposite in2="hardAlpha" operator="out"/>
<feColorMatrix type="matrix" values="0 0 0 0 0 0 0 0 0 0 0 0 0 0 0 0 0 0 0.15 0"/>
<feBlend mode="normal" in2="BackgroundImageFix" result="effect1_dropShadow_34_26"/>
<feBlend mode="normal" in="SourceGraphic" in2="effect1_dropShadow_34_26" result="shape"/>
</filter>
<filter id="filter4_d_34_26" x="149.031" y="122.091" width="45.3691" height="56.9091" filterUnits="userSpaceOnUse" color-interpolation-filters="sRGB">
<feFlood flood-opacity="0" result="BackgroundImageFix"/>
<feColorMatrix in="SourceAlpha" type="matrix" values="0 0 0 0 0 0 0 0 0 0 0 0 0 0 0 0 0 0 127 0" result="hardAlpha"/>
<feOffset dy="4"/>
<feGaussianBlur stdDeviation="5.5"/>
<feComposite in2="hardAlpha" operator="out"/>
<feColorMatrix type="matrix" values="0 0 0 0 0 0 0 0 0 0 0 0 0 0 0 0 0 0 0.15 0"/>
<feBlend mode="normal" in2="BackgroundImageFix" result="effect1_dropShadow_34_26"/>
<feBlend mode="normal" in="SourceGraphic" in2="effect1_dropShadow_34_26" result="shape"/>
</filter>
<filter id="filter5_d_34_26" x="103.073" y="122.091" width="52.3169" height="56.9091" filterUnits="userSpaceOnUse" color-interpolation-filters="sRGB">
<feFlood flood-opacity="0" result="BackgroundImageFix"/>
<feColorMatrix in="SourceAlpha" type="matrix" values="0 0 0 0 0 0 0 0 0 0 0 0 0 0 0 0 0 0 127 0" result="hardAlpha"/>
<feOffset dy="4"/>
<feGaussianBlur stdDeviation="5.5"/>
<feComposite in2="hardAlpha" operator="out"/>
<feColorMatrix type="matrix" values="0 0 0 0 0 0 0 0 0 0 0 0 0 0 0 0 0 0 0.15 0"/>
<feBlend mode="normal" in2="BackgroundImageFix" result="effect1_dropShadow_34_26"/>
<feBlend mode="normal" in="SourceGraphic" in2="effect1_dropShadow_34_26" result="shape"/>
</filter>
<filter id="filter6_d_34_26" x="44.271" y="122.091" width="65.6362" height="56.9091" filterUnits="userSpaceOnUse" color-interpolation-filters="sRGB">
<feFlood flood-opacity="0" result="BackgroundImageFix"/>
<feColorMatrix in="SourceAlpha" type="matrix" values="0 0 0 0 0 0 0 0 0 0 0 0 0 0 0 0 0 0 127 0" result="hardAlpha"/>
<feOffset dy="4"/>
<feGaussianBlur stdDeviation="5.5"/>
<feComposite in2="hardAlpha" operator="out"/>
<feColorMatrix type="matrix" values="0 0 0 0 0 0 0 0 0 0 0 0 0 0 0 0 0 0 0.15 0"/>
<feBlend mode="normal" in2="BackgroundImageFix" result="effect1_dropShadow_34_26"/>
<feBlend mode="normal" in="SourceGraphic" in2="effect1_dropShadow_34_26" result="shape"/>
</filter>
<filter id="filter7_d_34_26" x="0" y="122.091" width="51.3184" height="56.9091" filterUnits="userSpaceOnUse" color-interpolation-filters="sRGB">
<feFlood flood-opacity="0" result="BackgroundImageFix"/>
<feColorMatrix in="SourceAlpha" type="matrix" values="0 0 0 0 0 0 0 0 0 0 0 0 0 0 0 0 0 0 127 0" result="hardAlpha"/>
<feOffset dy="4"/>
<feGaussianBlur stdDeviation="5.5"/>
<feComposite in2="hardAlpha" operator="out"/>
<feColorMatrix type="matrix" values="0 0 0 0 0 0 0 0 0 0 0 0 0 0 0 0 0 0 0.15 0"/>
<feBlend mode="normal" in2="BackgroundImageFix" result="effect1_dropShadow_34_26"/>
<feBlend mode="normal" in="SourceGraphic" in2="effect1_dropShadow_34_26" result="shape"/>
</filter>
<filter id="filter8_d_34_26" x="0.147949" y="0" width="398" height="121.204" filterUnits="userSpaceOnUse" color-interpolation-filters="sRGB">
<feFlood flood-opacity="0" result="BackgroundImageFix"/>
<feColorMatrix in="SourceAlpha" type="matrix" values="0 0 0 0 0 0 0 0 0 0 0 0 0 0 0 0 0 0 127 0" result="hardAlpha"/>
<feOffset dy="4"/>
<feGaussianBlur stdDeviation="5.5"/>
<feComposite in2="hardAlpha" operator="out"/>
<feColorMatrix type="matrix" values="0 0 0 0 0 0 0 0 0 0 0 0 0 0 0 0 0 0 0.15 0"/>
<feBlend mode="normal" in2="BackgroundImageFix" result="effect1_dropShadow_34_26"/>
<feBlend mode="normal" in="SourceGraphic" in2="effect1_dropShadow_34_26" result="shape"/>
</filter>
</defs>
</svg>
